<svg xmlns="http://www.w3.org/2000/svg" viewBox="0 0 64 64" role="img" aria-label="Tariqu-l-ummah">
  <rect width="64" height="64" rx="12" fill="#0d5c4b"/>
  <g fill="none" stroke="#d4a84b" stroke-width="1.5" stroke-linejoin="round">
    <path d="M32 8 L36 24 L52 24 L39 34 L44 50 L32 40 L20 50 L25 34 L12 24 L28 24 Z"/>
    <path d="M32 18 L34 28 L44 28 L36 34 L38 44 L32 38 L26 44 L28 34 L20 28 L30 28 Z" opacity="0.55"/>
  </g>
  <path fill="#d4a84b" d="M38 14a10 10 0 0 0-12 0 8 8 0 1 1 12 0z"/>
  <rect x="22" y="46" width="20" height="3" rx="1" fill="#faf8f4" opacity="0.85"/>
  <rect x="24" y="42" width="16" height="3" rx="1" fill="#faf8f4" opacity="0.65"/>
</svg>
